<svg xmlns="http://www.w3.org/2000/svg" xmlns:xlink="http://www.w3.org/1999/xlink" width="150" zoomAndPan="magnify" viewBox="0 0 112.5 37.5" height="50" preserveAspectRatio="xMidYMid meet" version="1.0"><defs><g/></defs><g fill="#010101" fill-opacity="1"><g transform="translate(1.177048, 23.961269)"><g><path d="M 1.375 -18.890625 L 7.234375 -18.890625 C 9.003906 -18.890625 10.414062 -18.507812 11.46875 -17.75 C 12.519531 -17 13.046875 -15.773438 13.046875 -14.078125 C 13.046875 -12.179688 12.257812 -10.832031 10.6875 -10.03125 C 13.375 -9.550781 14.71875 -7.960938 14.71875 -5.265625 C 14.71875 -3.679688 14.164062 -2.40625 13.0625 -1.4375 C 11.96875 -0.476562 10.457031 0 8.53125 0 L 1.375 0 Z M 5.671875 -11.484375 L 6.015625 -11.484375 C 6.984375 -11.484375 7.703125 -11.648438 8.171875 -11.984375 C 8.640625 -12.328125 8.875 -12.878906 8.875 -13.640625 C 8.875 -14.921875 7.921875 -15.5625 6.015625 -15.5625 L 5.671875 -15.5625 Z M 5.671875 -3.3125 L 7.03125 -3.3125 C 9.132812 -3.3125 10.1875 -4.015625 10.1875 -5.421875 C 10.1875 -6.265625 9.921875 -6.867188 9.390625 -7.234375 C 8.867188 -7.597656 8.082031 -7.78125 7.03125 -7.78125 L 5.671875 -7.78125 Z M 5.671875 -3.3125 "/></g></g></g><g fill="#010101" fill-opacity="1"><g transform="translate(16.417416, 23.961269)"><g><path d="M 10.28125 -11.75 L 14.953125 -11.75 L 5.71875 5.953125 L 1.046875 5.953125 L 5.109375 -1.828125 L -0.453125 -11.75 L 4.21875 -11.75 L 7.484375 -5.71875 Z M 10.28125 -11.75 "/></g></g></g><g fill="#010101" fill-opacity="1"><g transform="translate(30.902635, 23.961269)"><g><path d="M 2.0625 -11.75 L 2.0625 -16.109375 L 6.109375 -16.109375 L 6.109375 -11.75 L 8.578125 -11.75 L 8.578125 -8.65625 L 6.109375 -8.65625 L 6.109375 -4.921875 C 6.109375 -3.835938 6.414062 -3.296875 7.03125 -3.296875 C 7.175781 -3.296875 7.332031 -3.328125 7.5 -3.390625 C 7.675781 -3.453125 7.804688 -3.515625 7.890625 -3.578125 L 8.03125 -3.65625 L 9.046875 -0.390625 C 8.171875 0.0976562 7.175781 0.34375 6.0625 0.34375 C 5.300781 0.34375 4.644531 0.210938 4.09375 -0.046875 C 3.539062 -0.316406 3.125 -0.675781 2.84375 -1.125 C 2.5625 -1.582031 2.359375 -2.054688 2.234375 -2.546875 C 2.117188 -3.046875 2.0625 -3.578125 2.0625 -4.140625 L 2.0625 -8.65625 L 0.359375 -8.65625 L 0.359375 -11.75 Z M 2.0625 -11.75 "/></g></g></g><g fill="#010101" fill-opacity="1"><g transform="translate(39.941593, 23.961269)"><g><path d="M 13.25 -5.3125 L 4.734375 -5.3125 C 4.734375 -4.488281 5 -3.878906 5.53125 -3.484375 C 6.070312 -3.085938 6.65625 -2.890625 7.28125 -2.890625 C 7.9375 -2.890625 8.453125 -2.972656 8.828125 -3.140625 C 9.210938 -3.316406 9.648438 -3.664062 10.140625 -4.1875 L 13.078125 -2.71875 C 11.847656 -0.675781 9.816406 0.34375 6.984375 0.34375 C 5.210938 0.34375 3.691406 -0.257812 2.421875 -1.46875 C 1.160156 -2.6875 0.53125 -4.148438 0.53125 -5.859375 C 0.53125 -7.566406 1.160156 -9.03125 2.421875 -10.25 C 3.691406 -11.476562 5.210938 -12.09375 6.984375 -12.09375 C 8.847656 -12.09375 10.363281 -11.550781 11.53125 -10.46875 C 12.695312 -9.394531 13.28125 -7.859375 13.28125 -5.859375 C 13.28125 -5.585938 13.269531 -5.40625 13.25 -5.3125 Z M 4.859375 -7.546875 L 9.3125 -7.546875 C 9.21875 -8.160156 8.976562 -8.628906 8.59375 -8.953125 C 8.207031 -9.285156 7.707031 -9.453125 7.09375 -9.453125 C 6.425781 -9.453125 5.894531 -9.273438 5.5 -8.921875 C 5.101562 -8.578125 4.890625 -8.117188 4.859375 -7.546875 Z M 4.859375 -7.546875 "/></g></g></g><g fill="#010101" fill-opacity="1"><g transform="translate(53.740313, 23.961269)"><g><path d="M 5.671875 -11.71875 L 5.671875 0 L 1.375 0 L 1.375 -18.890625 L 5.671875 -18.890625 L 13.1875 -7.171875 L 13.234375 -7.171875 L 13.234375 -18.890625 L 17.53125 -18.890625 L 17.53125 0 L 13.234375 0 L 5.71875 -11.71875 Z M 5.671875 -11.71875 "/></g></g></g><g fill="#010101" fill-opacity="1"><g transform="translate(72.642032, 23.961269)"><g><path d="M 13.25 -5.3125 L 4.734375 -5.3125 C 4.734375 -4.488281 5 -3.878906 5.53125 -3.484375 C 6.070312 -3.085938 6.65625 -2.890625 7.28125 -2.890625 C 7.9375 -2.890625 8.453125 -2.972656 8.828125 -3.140625 C 9.210938 -3.316406 9.648438 -3.664062 10.140625 -4.1875 L 13.078125 -2.71875 C 11.847656 -0.675781 9.816406 0.34375 6.984375 0.34375 C 5.210938 0.34375 3.691406 -0.257812 2.421875 -1.46875 C 1.160156 -2.6875 0.53125 -4.148438 0.53125 -5.859375 C 0.53125 -7.566406 1.160156 -9.03125 2.421875 -10.25 C 3.691406 -11.476562 5.210938 -12.09375 6.984375 -12.09375 C 8.847656 -12.09375 10.363281 -11.550781 11.53125 -10.46875 C 12.695312 -9.394531 13.28125 -7.859375 13.28125 -5.859375 C 13.28125 -5.585938 13.269531 -5.40625 13.25 -5.3125 Z M 4.859375 -7.546875 L 9.3125 -7.546875 C 9.21875 -8.160156 8.976562 -8.628906 8.59375 -8.953125 C 8.207031 -9.285156 7.707031 -9.453125 7.09375 -9.453125 C 6.425781 -9.453125 5.894531 -9.273438 5.5 -8.921875 C 5.101562 -8.578125 4.890625 -8.117188 4.859375 -7.546875 Z M 4.859375 -7.546875 "/></g></g></g><g fill="#010101" fill-opacity="1"><g transform="translate(86.440752, 23.961269)"><g><path d="M 14.96875 0 L 10.078125 0 L 7.484375 -3.3125 L 4.90625 0 L 0 0 L 5.015625 -6.140625 L 0.703125 -11.75 L 5.453125 -11.75 L 7.484375 -9.015625 L 9.515625 -11.75 L 14.265625 -11.75 L 9.953125 -6.140625 Z M 14.96875 0 "/></g></g></g><g fill="#010101" fill-opacity="1"><g transform="translate(101.406523, 23.961269)"><g><path d="M 2.0625 -11.75 L 2.0625 -16.109375 L 6.109375 -16.109375 L 6.109375 -11.75 L 8.578125 -11.75 L 8.578125 -8.65625 L 6.109375 -8.65625 L 6.109375 -4.921875 C 6.109375 -3.835938 6.414062 -3.296875 7.03125 -3.296875 C 7.175781 -3.296875 7.332031 -3.328125 7.5 -3.390625 C 7.675781 -3.453125 7.804688 -3.515625 7.890625 -3.578125 L 8.03125 -3.65625 L 9.046875 -0.390625 C 8.171875 0.0976562 7.175781 0.34375 6.0625 0.34375 C 5.300781 0.34375 4.644531 0.210938 4.09375 -0.046875 C 3.539062 -0.316406 3.125 -0.675781 2.84375 -1.125 C 2.5625 -1.582031 2.359375 -2.054688 2.234375 -2.546875 C 2.117188 -3.046875 2.0625 -3.578125 2.0625 -4.140625 L 2.0625 -8.65625 L 0.359375 -8.65625 L 0.359375 -11.75 Z M 2.0625 -11.75 "/></g></g></g><g fill="#010101" fill-opacity="1"><g transform="translate(67.26543, 31.29936)"><g><path d="M 3.234375 0 L 1.65625 0 C 1.601562 0 1.578125 -0.03125 1.578125 -0.09375 L 1.578125 -0.421875 C 1.578125 -0.484375 1.601562 -0.515625 1.65625 -0.515625 L 2.171875 -0.515625 L 2.171875 -4.359375 L 0.890625 -4.359375 L 0.890625 -3.640625 C 0.890625 -3.578125 0.859375 -3.546875 0.796875 -3.546875 L 0.421875 -3.546875 C 0.359375 -3.546875 0.328125 -3.578125 0.328125 -3.640625 L 0.328125 -4.78125 C 0.328125 -4.84375 0.359375 -4.875 0.421875 -4.875 L 4.515625 -4.875 C 4.578125 -4.875 4.609375 -4.84375 4.609375 -4.78125 L 4.609375 -3.640625 C 4.609375 -3.578125 4.578125 -3.546875 4.515625 -3.546875 L 4.125 -3.546875 C 4.0625 -3.546875 4.03125 -3.578125 4.03125 -3.640625 L 4.03125 -4.359375 L 2.765625 -4.359375 L 2.765625 -0.515625 L 3.234375 -0.515625 C 3.304688 -0.515625 3.34375 -0.484375 3.34375 -0.421875 L 3.34375 -0.09375 C 3.34375 -0.03125 3.304688 0 3.234375 0 Z M 3.234375 0 "/></g></g></g><g fill="#010101" fill-opacity="1"><g transform="translate(72.193537, 31.29936)"><g><path d="M 3.28125 -1.59375 L 0.828125 -1.59375 C 0.847656 -1.21875 0.96875 -0.925781 1.1875 -0.71875 C 1.40625 -0.519531 1.648438 -0.421875 1.921875 -0.421875 C 2.203125 -0.421875 2.441406 -0.476562 2.640625 -0.59375 C 2.835938 -0.71875 2.96875 -0.835938 3.03125 -0.953125 C 3.070312 -0.992188 3.113281 -1 3.15625 -0.96875 L 3.34375 -0.78125 C 3.375 -0.757812 3.390625 -0.738281 3.390625 -0.71875 C 3.390625 -0.695312 3.378906 -0.671875 3.359375 -0.640625 C 3.335938 -0.609375 3.296875 -0.554688 3.234375 -0.484375 C 3.171875 -0.421875 3.078125 -0.34375 2.953125 -0.25 C 2.835938 -0.164062 2.6875 -0.09375 2.5 -0.03125 C 2.320312 0.0195312 2.128906 0.046875 1.921875 0.046875 C 1.453125 0.046875 1.054688 -0.109375 0.734375 -0.421875 C 0.410156 -0.734375 0.25 -1.148438 0.25 -1.671875 C 0.25 -2.203125 0.40625 -2.617188 0.71875 -2.921875 C 1.039062 -3.234375 1.429688 -3.390625 1.890625 -3.390625 C 2.347656 -3.390625 2.707031 -3.238281 2.96875 -2.9375 C 3.238281 -2.644531 3.375 -2.25 3.375 -1.75 C 3.375 -1.726562 3.375 -1.707031 3.375 -1.6875 C 3.375 -1.625 3.34375 -1.59375 3.28125 -1.59375 Z M 2.8125 -2.015625 C 2.789062 -2.296875 2.695312 -2.519531 2.53125 -2.6875 C 2.375 -2.851562 2.160156 -2.9375 1.890625 -2.9375 C 1.617188 -2.9375 1.382812 -2.859375 1.1875 -2.703125 C 1 -2.546875 0.882812 -2.316406 0.84375 -2.015625 Z M 2.8125 -2.015625 "/></g></g></g><g fill="#010101" fill-opacity="1"><g transform="translate(75.84047, 31.29936)"><g><path d="M 3.34375 -0.78125 C 3.375 -0.757812 3.390625 -0.738281 3.390625 -0.71875 C 3.390625 -0.695312 3.378906 -0.671875 3.359375 -0.640625 C 3.335938 -0.609375 3.296875 -0.554688 3.234375 -0.484375 C 3.171875 -0.421875 3.078125 -0.34375 2.953125 -0.25 C 2.835938 -0.164062 2.6875 -0.09375 2.5 -0.03125 C 2.320312 0.0195312 2.128906 0.046875 1.921875 0.046875 C 1.453125 0.046875 1.054688 -0.109375 0.734375 -0.421875 C 0.410156 -0.734375 0.25 -1.148438 0.25 -1.671875 C 0.25 -2.203125 0.410156 -2.617188 0.734375 -2.921875 C 1.054688 -3.234375 1.445312 -3.390625 1.90625 -3.390625 C 2.363281 -3.390625 2.710938 -3.21875 2.953125 -2.875 L 2.953125 -3.25 C 2.953125 -3.3125 2.976562 -3.34375 3.03125 -3.34375 L 3.296875 -3.34375 C 3.347656 -3.34375 3.375 -3.3125 3.375 -3.25 L 3.375 -2.109375 C 3.375 -2.046875 3.347656 -2.015625 3.296875 -2.015625 L 2.984375 -2.015625 C 2.929688 -2.015625 2.90625 -2.046875 2.90625 -2.109375 L 2.90625 -2.21875 C 2.894531 -2.382812 2.800781 -2.539062 2.625 -2.6875 C 2.445312 -2.832031 2.21875 -2.90625 1.9375 -2.90625 C 1.65625 -2.90625 1.398438 -2.796875 1.171875 -2.578125 C 0.941406 -2.359375 0.828125 -2.054688 0.828125 -1.671875 C 0.828125 -1.285156 0.9375 -0.976562 1.15625 -0.75 C 1.382812 -0.53125 1.640625 -0.421875 1.921875 -0.421875 C 2.203125 -0.421875 2.441406 -0.476562 2.640625 -0.59375 C 2.835938 -0.71875 2.96875 -0.835938 3.03125 -0.953125 C 3.0625 -1.003906 3.101562 -1.007812 3.15625 -0.96875 Z M 3.34375 -0.78125 "/></g></g></g><g fill="#010101" fill-opacity="1"><g transform="translate(79.494186, 31.29936)"><g><path d="M 3.859375 0 L 3.21875 0 C 3.019531 0 2.921875 -0.09375 2.921875 -0.28125 L 2.921875 -2.0625 C 2.921875 -2.332031 2.859375 -2.535156 2.734375 -2.671875 C 2.609375 -2.816406 2.425781 -2.890625 2.1875 -2.890625 C 2 -2.890625 1.851562 -2.859375 1.75 -2.796875 C 1.65625 -2.742188 1.582031 -2.695312 1.53125 -2.65625 C 1.488281 -2.613281 1.453125 -2.570312 1.421875 -2.53125 C 1.359375 -2.457031 1.3125 -2.382812 1.28125 -2.3125 L 1.28125 -0.453125 L 1.640625 -0.453125 C 1.703125 -0.453125 1.734375 -0.425781 1.734375 -0.375 L 1.734375 -0.078125 C 1.734375 -0.0234375 1.703125 0 1.640625 0 L 0.34375 0 C 0.28125 0 0.25 -0.0234375 0.25 -0.078125 L 0.25 -0.375 C 0.25 -0.425781 0.28125 -0.453125 0.34375 -0.453125 L 0.71875 -0.453125 L 0.71875 -4.421875 L 0.34375 -4.421875 C 0.28125 -4.421875 0.25 -4.445312 0.25 -4.5 L 0.25 -4.78125 C 0.25 -4.84375 0.28125 -4.875 0.34375 -4.875 L 1.203125 -4.875 C 1.253906 -4.875 1.28125 -4.84375 1.28125 -4.78125 L 1.28125 -3.28125 C 1.28125 -3.125 1.269531 -2.984375 1.25 -2.859375 L 1.265625 -2.859375 C 1.484375 -3.210938 1.835938 -3.390625 2.328125 -3.390625 C 2.691406 -3.390625 2.972656 -3.28125 3.171875 -3.0625 C 3.378906 -2.851562 3.484375 -2.566406 3.484375 -2.203125 L 3.484375 -0.453125 L 3.859375 -0.453125 C 3.921875 -0.453125 3.953125 -0.425781 3.953125 -0.375 L 3.953125 -0.078125 C 3.953125 -0.0234375 3.921875 0 3.859375 0 Z M 3.859375 0 "/></g></g></g><g fill="#010101" fill-opacity="1"><g transform="translate(83.703756, 31.29936)"><g><path d="M 3.859375 0 L 3.21875 0 C 3.019531 0 2.921875 -0.09375 2.921875 -0.28125 L 2.921875 -2.0625 C 2.921875 -2.332031 2.859375 -2.535156 2.734375 -2.671875 C 2.609375 -2.816406 2.425781 -2.890625 2.1875 -2.890625 C 1.832031 -2.890625 1.5625 -2.75 1.375 -2.46875 C 1.34375 -2.4375 1.3125 -2.382812 1.28125 -2.3125 L 1.28125 -0.453125 L 1.640625 -0.453125 C 1.703125 -0.453125 1.734375 -0.425781 1.734375 -0.375 L 1.734375 -0.078125 C 1.734375 -0.0234375 1.703125 0 1.640625 0 L 0.34375 0 C 0.28125 0 0.25 -0.0234375 0.25 -0.078125 L 0.25 -0.375 C 0.25 -0.425781 0.28125 -0.453125 0.34375 -0.453125 L 0.71875 -0.453125 L 0.71875 -2.875 L 0.34375 -2.875 C 0.28125 -2.875 0.25 -2.90625 0.25 -2.96875 L 0.25 -3.25 C 0.25 -3.3125 0.28125 -3.34375 0.34375 -3.34375 L 1.140625 -3.34375 C 1.203125 -3.34375 1.234375 -3.3125 1.234375 -3.25 L 1.21875 -2.796875 L 1.234375 -2.796875 C 1.472656 -3.191406 1.835938 -3.390625 2.328125 -3.390625 C 2.691406 -3.390625 2.972656 -3.28125 3.171875 -3.0625 C 3.378906 -2.851562 3.484375 -2.566406 3.484375 -2.203125 L 3.484375 -0.453125 L 3.859375 -0.453125 C 3.921875 -0.453125 3.953125 -0.425781 3.953125 -0.375 L 3.953125 -0.078125 C 3.953125 -0.0234375 3.921875 0 3.859375 0 Z M 3.859375 0 "/></g></g></g><g fill="#010101" fill-opacity="1"><g transform="translate(87.913326, 31.29936)"><g><path d="M 3.15625 -0.421875 C 2.84375 -0.109375 2.4375 0.046875 1.9375 0.046875 C 1.445312 0.046875 1.039062 -0.109375 0.71875 -0.421875 C 0.40625 -0.734375 0.25 -1.148438 0.25 -1.671875 C 0.25 -2.203125 0.410156 -2.617188 0.734375 -2.921875 C 1.054688 -3.234375 1.457031 -3.390625 1.9375 -3.390625 C 2.425781 -3.390625 2.832031 -3.234375 3.15625 -2.921875 C 3.476562 -2.609375 3.640625 -2.191406 3.640625 -1.671875 C 3.640625 -1.160156 3.476562 -0.742188 3.15625 -0.421875 Z M 0.828125 -1.671875 C 0.828125 -1.304688 0.9375 -1.003906 1.15625 -0.765625 C 1.375 -0.535156 1.640625 -0.421875 1.953125 -0.421875 C 2.265625 -0.421875 2.53125 -0.535156 2.75 -0.765625 C 2.96875 -1.003906 3.078125 -1.304688 3.078125 -1.671875 C 3.078125 -2.046875 2.96875 -2.34375 2.75 -2.5625 C 2.53125 -2.789062 2.265625 -2.90625 1.953125 -2.90625 C 1.640625 -2.90625 1.375 -2.789062 1.15625 -2.5625 C 0.9375 -2.34375 0.828125 -2.046875 0.828125 -1.671875 Z M 0.828125 -1.671875 "/></g></g></g><g fill="#010101" fill-opacity="1"><g transform="translate(91.811077, 31.29936)"><g><path d="M 1.640625 0 L 0.34375 0 C 0.28125 0 0.25 -0.0234375 0.25 -0.078125 L 0.25 -0.375 C 0.25 -0.425781 0.28125 -0.453125 0.34375 -0.453125 L 0.71875 -0.453125 L 0.71875 -4.421875 L 0.34375 -4.421875 C 0.28125 -4.421875 0.25 -4.445312 0.25 -4.5 L 0.25 -4.78125 C 0.25 -4.84375 0.28125 -4.875 0.34375 -4.875 L 1.09375 -4.875 C 1.21875 -4.875 1.28125 -4.816406 1.28125 -4.703125 L 1.28125 -0.453125 L 1.640625 -0.453125 C 1.703125 -0.453125 1.734375 -0.425781 1.734375 -0.375 L 1.734375 -0.078125 C 1.734375 -0.0234375 1.703125 0 1.640625 0 Z M 1.640625 0 "/></g></g></g><g fill="#010101" fill-opacity="1"><g transform="translate(93.797232, 31.29936)"><g><path d="M 3.15625 -0.421875 C 2.84375 -0.109375 2.4375 0.046875 1.9375 0.046875 C 1.445312 0.046875 1.039062 -0.109375 0.71875 -0.421875 C 0.40625 -0.734375 0.25 -1.148438 0.25 -1.671875 C 0.25 -2.203125 0.410156 -2.617188 0.734375 -2.921875 C 1.054688 -3.234375 1.457031 -3.390625 1.9375 -3.390625 C 2.425781 -3.390625 2.832031 -3.234375 3.15625 -2.921875 C 3.476562 -2.609375 3.640625 -2.191406 3.640625 -1.671875 C 3.640625 -1.160156 3.476562 -0.742188 3.15625 -0.421875 Z M 0.828125 -1.671875 C 0.828125 -1.304688 0.9375 -1.003906 1.15625 -0.765625 C 1.375 -0.535156 1.640625 -0.421875 1.953125 -0.421875 C 2.265625 -0.421875 2.53125 -0.535156 2.75 -0.765625 C 2.96875 -1.003906 3.078125 -1.304688 3.078125 -1.671875 C 3.078125 -2.046875 2.96875 -2.34375 2.75 -2.5625 C 2.53125 -2.789062 2.265625 -2.90625 1.953125 -2.90625 C 1.640625 -2.90625 1.375 -2.789062 1.15625 -2.5625 C 0.9375 -2.34375 0.828125 -2.046875 0.828125 -1.671875 Z M 0.828125 -1.671875 "/></g></g></g><g fill="#010101" fill-opacity="1"><g transform="translate(97.694983, 31.29936)"><g><path d="M 1.8125 1.59375 C 1.59375 1.59375 1.421875 1.570312 1.296875 1.53125 C 1.179688 1.5 1.085938 1.472656 1.015625 1.453125 C 0.953125 1.429688 0.894531 1.40625 0.84375 1.375 C 0.789062 1.351562 0.742188 1.328125 0.703125 1.296875 C 0.503906 1.171875 0.429688 1.078125 0.484375 1.015625 L 0.65625 0.765625 C 0.6875 0.722656 0.722656 0.722656 0.765625 0.765625 C 0.773438 0.765625 0.789062 0.773438 0.8125 0.796875 C 0.84375 0.816406 0.867188 0.832031 0.890625 0.84375 C 0.910156 0.863281 0.941406 0.882812 0.984375 0.90625 C 1.035156 0.9375 1.085938 0.960938 1.140625 0.984375 C 1.191406 1.003906 1.25 1.019531 1.3125 1.03125 C 1.46875 1.070312 1.632812 1.09375 1.8125 1.09375 C 2.132812 1.09375 2.394531 1.015625 2.59375 0.859375 C 2.789062 0.703125 2.890625 0.457031 2.890625 0.125 L 2.890625 -0.640625 C 2.804688 -0.453125 2.671875 -0.289062 2.484375 -0.15625 C 2.296875 -0.0195312 2.0625 0.046875 1.78125 0.046875 C 1.320312 0.046875 0.953125 -0.113281 0.671875 -0.4375 C 0.390625 -0.757812 0.25 -1.175781 0.25 -1.6875 C 0.25 -2.195312 0.390625 -2.609375 0.671875 -2.921875 C 0.960938 -3.234375 1.332031 -3.390625 1.78125 -3.390625 C 2.0625 -3.390625 2.296875 -3.320312 2.484375 -3.1875 C 2.679688 -3.0625 2.820312 -2.90625 2.90625 -2.71875 L 2.921875 -2.71875 L 2.921875 -3.25 C 2.921875 -3.3125 2.945312 -3.34375 3 -3.34375 L 3.796875 -3.34375 C 3.847656 -3.34375 3.875 -3.3125 3.875 -3.25 L 3.875 -2.96875 C 3.875 -2.90625 3.847656 -2.875 3.796875 -2.875 L 3.4375 -2.875 L 3.4375 0.125 C 3.4375 0.613281 3.285156 0.976562 2.984375 1.21875 C 2.691406 1.46875 2.300781 1.59375 1.8125 1.59375 Z M 0.8125 -1.671875 C 0.8125 -1.296875 0.910156 -0.992188 1.109375 -0.765625 C 1.304688 -0.535156 1.554688 -0.421875 1.859375 -0.421875 C 2.160156 -0.421875 2.40625 -0.535156 2.59375 -0.765625 C 2.789062 -0.992188 2.890625 -1.296875 2.890625 -1.671875 C 2.890625 -2.054688 2.789062 -2.359375 2.59375 -2.578125 C 2.40625 -2.796875 2.160156 -2.90625 1.859375 -2.90625 C 1.554688 -2.90625 1.304688 -2.789062 1.109375 -2.5625 C 0.910156 -2.34375 0.8125 -2.046875 0.8125 -1.671875 Z M 0.8125 -1.671875 "/></g></g></g><g fill="#010101" fill-opacity="1"><g transform="translate(101.83676, 31.29936)"><g><path d="M 1.640625 0 L 0.34375 0 C 0.28125 0 0.25 -0.0234375 0.25 -0.078125 L 0.25 -0.375 C 0.25 -0.425781 0.28125 -0.453125 0.34375 -0.453125 L 0.71875 -0.453125 L 0.71875 -2.875 L 0.34375 -2.875 C 0.28125 -2.875 0.25 -2.90625 0.25 -2.96875 L 0.25 -3.25 C 0.25 -3.3125 0.28125 -3.34375 0.34375 -3.34375 L 1.203125 -3.34375 C 1.253906 -3.34375 1.28125 -3.3125 1.28125 -3.25 L 1.28125 -0.453125 L 1.640625 -0.453125 C 1.703125 -0.453125 1.734375 -0.425781 1.734375 -0.375 L 1.734375 -0.078125 C 1.734375 -0.0234375 1.703125 0 1.640625 0 Z M 1.25 -4.328125 C 1.332031 -4.253906 1.375 -4.164062 1.375 -4.0625 C 1.375 -3.957031 1.332031 -3.867188 1.25 -3.796875 C 1.175781 -3.734375 1.085938 -3.703125 0.984375 -3.703125 C 0.878906 -3.703125 0.789062 -3.734375 0.71875 -3.796875 C 0.644531 -3.867188 0.609375 -3.957031 0.609375 -4.0625 C 0.609375 -4.164062 0.644531 -4.253906 0.71875 -4.328125 C 0.789062 -4.410156 0.878906 -4.453125 0.984375 -4.453125 C 1.085938 -4.453125 1.175781 -4.410156 1.25 -4.328125 Z M 1.25 -4.328125 "/></g></g></g><g fill="#010101" fill-opacity="1"><g transform="translate(103.822915, 31.29936)"><g><path d="M 3.28125 -1.59375 L 0.828125 -1.59375 C 0.847656 -1.21875 0.96875 -0.925781 1.1875 -0.71875 C 1.40625 -0.519531 1.648438 -0.421875 1.921875 -0.421875 C 2.203125 -0.421875 2.441406 -0.476562 2.640625 -0.59375 C 2.835938 -0.71875 2.96875 -0.835938 3.03125 -0.953125 C 3.070312 -0.992188 3.113281 -1 3.15625 -0.96875 L 3.34375 -0.78125 C 3.375 -0.757812 3.390625 -0.738281 3.390625 -0.71875 C 3.390625 -0.695312 3.378906 -0.671875 3.359375 -0.640625 C 3.335938 -0.609375 3.296875 -0.554688 3.234375 -0.484375 C 3.171875 -0.421875 3.078125 -0.34375 2.953125 -0.25 C 2.835938 -0.164062 2.6875 -0.09375 2.5 -0.03125 C 2.320312 0.0195312 2.128906 0.046875 1.921875 0.046875 C 1.453125 0.046875 1.054688 -0.109375 0.734375 -0.421875 C 0.410156 -0.734375 0.25 -1.148438 0.25 -1.671875 C 0.25 -2.203125 0.40625 -2.617188 0.71875 -2.921875 C 1.039062 -3.234375 1.429688 -3.390625 1.890625 -3.390625 C 2.347656 -3.390625 2.707031 -3.238281 2.96875 -2.9375 C 3.238281 -2.644531 3.375 -2.25 3.375 -1.75 C 3.375 -1.726562 3.375 -1.707031 3.375 -1.6875 C 3.375 -1.625 3.34375 -1.59375 3.28125 -1.59375 Z M 2.8125 -2.015625 C 2.789062 -2.296875 2.695312 -2.519531 2.53125 -2.6875 C 2.375 -2.851562 2.160156 -2.9375 1.890625 -2.9375 C 1.617188 -2.9375 1.382812 -2.859375 1.1875 -2.703125 C 1 -2.546875 0.882812 -2.316406 0.84375 -2.015625 Z M 2.8125 -2.015625 "/></g></g></g><g fill="#010101" fill-opacity="1"><g transform="translate(107.469847, 31.29936)"><g><path d="M 1.765625 0.046875 C 1.460938 0.046875 1.21875 -0.0078125 1.03125 -0.125 C 0.851562 -0.238281 0.742188 -0.34375 0.703125 -0.4375 L 0.6875 -0.4375 C 0.695312 -0.21875 0.703125 -0.101562 0.703125 -0.09375 C 0.703125 -0.03125 0.671875 0 0.609375 0 L 0.375 0 C 0.3125 0 0.28125 -0.03125 0.28125 -0.09375 L 0.28125 -1.109375 C 0.28125 -1.160156 0.3125 -1.1875 0.375 -1.1875 L 0.640625 -1.1875 C 0.703125 -1.1875 0.734375 -1.160156 0.734375 -1.109375 L 0.734375 -0.96875 C 0.773438 -0.832031 0.867188 -0.707031 1.015625 -0.59375 C 1.191406 -0.457031 1.40625 -0.390625 1.65625 -0.390625 C 2.164062 -0.390625 2.421875 -0.566406 2.421875 -0.921875 C 2.421875 -1.046875 2.347656 -1.144531 2.203125 -1.21875 C 2.066406 -1.289062 1.894531 -1.351562 1.6875 -1.40625 C 1.488281 -1.457031 1.289062 -1.515625 1.09375 -1.578125 C 0.894531 -1.640625 0.722656 -1.738281 0.578125 -1.875 C 0.441406 -2.019531 0.375 -2.203125 0.375 -2.421875 C 0.375 -2.710938 0.476562 -2.945312 0.6875 -3.125 C 0.90625 -3.300781 1.179688 -3.390625 1.515625 -3.390625 C 1.960938 -3.390625 2.28125 -3.253906 2.46875 -2.984375 L 2.484375 -2.984375 C 2.472656 -3.148438 2.46875 -3.234375 2.46875 -3.234375 C 2.46875 -3.296875 2.5 -3.328125 2.5625 -3.328125 L 2.78125 -3.328125 C 2.84375 -3.328125 2.875 -3.296875 2.875 -3.234375 L 2.875 -2.296875 C 2.875 -2.234375 2.84375 -2.203125 2.78125 -2.203125 L 2.515625 -2.203125 C 2.453125 -2.203125 2.421875 -2.234375 2.421875 -2.296875 L 2.421875 -2.390625 C 2.421875 -2.515625 2.347656 -2.632812 2.203125 -2.75 C 2.066406 -2.875 1.882812 -2.9375 1.65625 -2.9375 C 1.425781 -2.9375 1.25 -2.890625 1.125 -2.796875 C 1 -2.703125 0.9375 -2.578125 0.9375 -2.421875 C 0.9375 -2.273438 1.003906 -2.160156 1.140625 -2.078125 C 1.285156 -1.992188 1.457031 -1.925781 1.65625 -1.875 C 1.863281 -1.820312 2.066406 -1.765625 2.265625 -1.703125 C 2.472656 -1.648438 2.648438 -1.554688 2.796875 -1.421875 C 2.941406 -1.285156 3.015625 -1.097656 3.015625 -0.859375 C 3.015625 -0.617188 2.910156 -0.40625 2.703125 -0.21875 C 2.492188 -0.0390625 2.179688 0.046875 1.765625 0.046875 Z M 1.765625 0.046875 "/></g></g></g></svg>